<?xml version="1.0" encoding="UTF-8"?>
<svg width="120px" height="40px" viewBox="0 0 120 40" version="1.1" xmlns="http://www.w3.org/2000/svg">
    <g fill="none" fill-rule="evenodd">
        <rect fill="#000000" width="120" height="40" rx="6"/>
        <g transform="translate(8, 6)">
            <path d="M24.3,20.3c-0.2,0.5-0.3,0.7-0.6,1.1c-0.4,0.6-1,1.4-1.7,1.4c-0.6,0-0.8-0.4-1.7-0.4c-0.9,0-1.1,0.4-1.7,0.4 c-0.7,0-1.2-0.7-1.7-1.3c-1.1-1.6-2-4.6-0.8-6.6c0.6-1,1.6-1.6,2.8-1.6c0.9,0,1.7,0.6,2.2,0.6c0.5,0,1.3-0.6,2.3-0.6 c0.8,0,1.6,0.3,2.2,0.9c-1.9,1-1.6,3.7,0.3,4.5C26.1,19.1,24.7,19.5,24.3,20.3z M21.8,11.2c0.4-0.5,0.7-1.2,0.6-1.9 c-0.6,0-1.3,0.4-1.7,0.9c-0.4,0.5-0.7,1.1-0.6,1.8C20.7,12.1,21.4,11.7,21.8,11.2z" fill="#FFFFFF"/>
            <text fill="#FFFFFF" font-family="Arial-BoldMT, Arial" font-size="14" font-weight="bold">
                <tspan x="35" y="16">Download on the</tspan>
            </text>
            <text fill="#FFFFFF" font-family="Arial-BoldMT, Arial" font-size="20" font-weight="bold">
                <tspan x="35" y="25">App Store</tspan>
            </text>
        </g>
    </g>
</svg>
